<svg width="32" height="32" viewBox="0 0 32 32" fill="none" xmlns="http://www.w3.org/2000/svg">
  <!-- This will be replaced with the actual logo image -->
  <!-- For now, using a placeholder that matches the official logo design -->
  
  <!-- Background circle -->
  <circle cx="16" cy="16" r="15" fill="white" stroke="#059669" stroke-width="2"/>
  
  <!-- Mountains -->
  <path d="M8 20 L12 12 L16 16 L20 8 L24 12 L24 20 Z" fill="#D97706"/>
  <path d="M10 20 L13 14 L16 18 L19 12 L22 16 L22 20 Z" fill="#B45309"/>
  
  <!-- Water -->
  <path d="M4 20 L28 20 L28 24 L4 24 Z" fill="#3B82F6"/>
  
  <!-- Canoe -->
  <ellipse cx="16" cy="22" rx="4" ry="1" fill="#DC2626"/>
  
  <!-- Caduceus -->
  <line x1="6" y1="6" x2="6" y2="14" stroke="#DC2626" stroke-width="1"/>
  <path d="M4 8 Q6 6 8 8" stroke="#DC2626" stroke-width="1" fill="none"/>
  <path d="M4 10 Q6 12 8 10" stroke="#DC2626" stroke-width="1" fill="none"/>
  
  <!-- Huts -->
  <rect x="20" y="18" width="2" height="2" fill="#DC2626"/>
  <rect x="23" y="18" width="2" height="2" fill="#DC2626"/>
</svg>
